<?xml version="1.0" encoding="UTF-8"?>
<!DOCTYPE svg PUBLIC "-//W3C//DTD SVG 1.1//EN" "http://www.w3.org/Graphics/SVG/1.1/DTD/svg11.dtd">
<!-- Creator: CorelDRAW -->
<svg xmlns="http://www.w3.org/2000/svg" xml:space="preserve" width="45.0441mm" height="45.0439mm" version="1.1" style="shape-rendering:geometricPrecision; text-rendering:geometricPrecision; image-rendering:optimizeQuality; fill-rule:evenodd; clip-rule:evenodd"
viewBox="0 0 4622.03 4622.01"
 xmlns:xlink="http://www.w3.org/1999/xlink"
 xmlns:xodm="http://www.corel.com/coreldraw/odm/2003">
 <defs>
  <style type="text/css">
   <![CDATA[
    .fil1 {fill:#231F1F;fill-rule:nonzero}
    .fil0 {fill:#28AAE2;fill-rule:nonzero}
   ]]>
  </style>
 </defs>
 <g id="Layer_x0020_1">
  <metadata id="CorelCorpID_0Corel-Layer"/>
  <g id="_2149927641696">
   <path class="fil0" d="M4622.03 2310.83c0,648.2 -266.78,1234.43 -696.8,1654.07 -5.94,6.31 -12.25,12.25 -18.55,18.18 -148.42,141.37 -315.39,263.43 -497.2,361.4 -27.83,15.58 -56.03,30.05 -84.59,43.4 -111.31,54.55 -227.45,100.19 -348.04,136.54 -15.58,4.82 -31.16,9.28 -47.12,13.36 -10.01,2.97 -20.41,5.94 -30.79,8.54l-0.38 0c-44.14,11.87 -89.78,22.26 -135.43,31.16 -34.13,7.05 -68.27,12.99 -102.78,18.18 -33.76,4.82 -67.53,9.28 -102.04,12.98 -81.26,8.91 -163.62,13.36 -247.11,13.36 -83.85,0 -166.6,-4.45 -247.86,-13.36 -34.13,-3.7 -67.9,-8.16 -101.66,-12.98 -34.51,-5.19 -68.65,-11.13 -102.78,-18.18l-0.38 0c-45.64,-8.91 -90.53,-19.29 -135.06,-30.79 -10.38,-2.6 -20.78,-5.57 -30.79,-8.54 -15.96,-4.08 -31.54,-8.91 -47.49,-13.73 -120.22,-35.99 -236.72,-82 -348.04,-136.54 -28.58,-13.73 -56.77,-28.2 -84.6,-43.77l-0.37 0c-181.81,-97.96 -348.78,-219.66 -496.82,-361.03 -6.31,-5.93 -12.61,-11.87 -18.55,-18.18 -429.66,-419.64 -696.81,-1005.88 -696.81,-1654.07 0,-1276.37 1034.47,-2310.83 2311.21,-2310.83 1276,0 2310.83,1034.46 2310.83,2310.83z"/>
   <g>
    <path class="fil1" d="M3214.35 1452.05c-40.38,-228.86 -220.59,-449.83 -486.95,-532.44 0.34,-6.86 1.05,-13.64 1.05,-20.58 0,-230.54 -186.89,-417.42 -417.42,-417.42 -230.54,0 -417.42,186.89 -417.42,417.42 0,6.86 0.71,13.55 1.03,20.35 -266.31,82.67 -446.43,303.82 -486.81,532.68 -26.23,148.74 -7.08,373.79 19.6,556.76 -42.7,56.26 -40.61,139.32 4.87,224.61 57.66,108.09 4.79,254.01 175.2,274.33 2.53,40.6 5.29,76.58 8.31,105.46 23.98,229.14 367.63,483.18 415.58,557.9 47.95,74.72 195.8,59.77 195.8,59.77l67.93 0 31.96 0 67.93 0c0,0 147.85,14.95 195.8,-59.77 47.95,-74.72 391.6,-328.76 415.58,-557.9 3.02,-28.89 5.78,-64.86 8.3,-105.46 170.42,-20.32 117.56,-166.24 175.21,-274.33 45.49,-85.29 47.57,-168.34 4.87,-224.61 26.68,-182.96 45.84,-408.02 19.59,-556.76z"/>
    <g>
     <path class="fil1" d="M2311.09 4023.08c64.9,-45.29 370.06,-267.36 593.2,-580.71 -3.92,-2.79 -6.67,-4.77 -6.67,-4.77 -48.79,-93.67 -81.26,-267.82 -101.14,-412.81 -32.44,33.13 -64.36,63.95 -92.91,91.44 -41.04,39.51 -76.5,73.62 -87.61,90.94 -41.73,65.02 -137.28,74.74 -190.52,74.74 -15.89,0 -27.6,-0.87 -31.78,-1.22l-66.58 0 -31.96 0 -66.58 0c-4.18,0.35 -15.87,1.22 -31.78,1.22 -53.23,0 -148.79,-9.72 -190.52,-74.74 -11.11,-17.31 -46.57,-51.44 -87.61,-90.94 -28.56,-27.49 -60.48,-58.3 -92.91,-91.44 -19.9,144.99 -52.35,319.13 -101.15,412.81 0,0 -2.74,1.98 -6.66,4.77 223.15,313.33 528.3,535.42 593.21,580.71z"/>
     <path class="fil1" d="M3925.23 3964.9c-5.94,6.31 -12.25,12.25 -18.55,18.18 -148.42,141.37 -315.39,263.43 -497.2,361.4l86.46 -125.41 -285.7 -275.69 223.36 -208.15c4.45,1.48 8.91,3.33 13.35,4.82 261.22,93.5 399.61,116.14 477.9,224.47 0,0 0,0.37 0.38,0.37z"/>
     <path class="fil1" d="M1645.2 4524.43c-120.22,-35.99 -236.72,-82 -348.04,-136.54l-112.43 -162.87 292.38 -282 -242.29 -225.96c112.79,-46.75 225.59,-109.46 314.64,-164 12.24,179.96 44.53,608.14 95.74,971.38z"/>
     <path class="fil1" d="M3437.3 4225.01l-112.42 162.87c-111.31,54.55 -227.45,100.19 -348.04,136.54 51.57,-363.24 83.48,-791.42 95.73,-971.38 89.06,54.55 202.22,117.25 314.65,164l-241.92 225.96 292 282z"/>
     <path class="fil1" d="M1126.11 4219.07l86.08 125.04c-181.81,-97.96 -348.78,-219.66 -496.82,-361.03 -6.31,-5.93 -12.61,-11.87 -18.55,-18.18 0.38,0 0.38,-0.37 0.38,-0.37 78.28,-108.34 216.68,-130.97 478.26,-224.47 4.45,-1.49 8.91,-3.35 13.36,-4.82l222.99 208.15 -285.7 275.69z"/>
     <path class="fil1" d="M3029.54 3525.97c-11.13,165.11 -44.15,628.54 -99.81,1011.82 -10.01,2.97 -20.41,5.94 -30.79,8.54l-0.38 0c-44.14,11.87 -89.78,22.26 -135.43,31.16 -34.13,7.05 -68.27,12.99 -102.78,18.18 -33.76,4.82 -67.53,9.28 -102.04,12.98 -81.26,8.91 -163.62,13.36 -247.11,13.36 -83.85,0 -166.6,-4.45 -247.86,-13.36 -34.13,-3.7 -67.9,-8.16 -101.66,-12.98 -34.51,-5.19 -68.65,-11.13 -102.78,-18.18l-0.38 0c-45.64,-8.91 -90.53,-19.29 -135.06,-30.79 -10.38,-2.6 -20.78,-5.57 -30.79,-8.54 -55.66,-383.28 -89.05,-847.08 -99.81,-1012.19 34.88,-21.9 64.19,-41.56 86.45,-56.77 248.6,350.63 596.63,584.76 619.26,599.6l12.62 8.54 12.24 -8.54c22.64,-14.84 370.67,-248.97 619.64,-599.6 21.89,15.22 51.57,34.88 86.45,56.77z"/>
    </g>
   </g>
  </g>
 </g>
</svg>
