<?xml version="1.0" encoding="UTF-8"?>
<!DOCTYPE svg PUBLIC "-//W3C//DTD SVG 1.1//EN" "http://www.w3.org/Graphics/SVG/1.1/DTD/svg11.dtd">
<!-- Creator: CorelDRAW -->
<svg xmlns="http://www.w3.org/2000/svg" xml:space="preserve" width="45.0404mm" height="45.0405mm" version="1.1" style="shape-rendering:geometricPrecision; text-rendering:geometricPrecision; image-rendering:optimizeQuality; fill-rule:evenodd; clip-rule:evenodd"
viewBox="0 0 1425.65 1425.66"
 xmlns:xlink="http://www.w3.org/1999/xlink"
 xmlns:xodm="http://www.corel.com/coreldraw/odm/2003">
 <defs>
  <style type="text/css">
   <![CDATA[
    .fil1 {fill:#231F1F;fill-rule:nonzero}
    .fil0 {fill:#82DBF4;fill-rule:nonzero}
   ]]>
  </style>
 </defs>
 <g id="Layer_x0020_1">
  <metadata id="CorelCorpID_0Corel-Layer"/>
  <g id="_2149916282544">
   <path class="fil0" d="M1425.65 712.83c0,199.95 -82.29,380.68 -214.95,510.24 -1.83,1.95 -3.78,3.78 -5.72,5.61 -0.69,0.69 -1.37,1.37 -2.17,2.06 -80.58,76.23 -179.12,133.91 -288.77,166.07 -0.8,0.23 -1.49,0.46 -2.29,0.69 -0.8,0.23 -1.72,0.46 -2.52,0.69 -2.52,0.8 -5.04,1.49 -7.67,2.17 -2.63,0.69 -5.27,1.49 -8.01,2.17 -3.43,0.92 -6.98,1.83 -10.53,2.63 -54.48,13.51 -111.6,20.49 -170.19,20.49 -58.72,0 -115.72,-6.98 -170.31,-20.49 -3.55,-0.8 -7.1,-1.72 -10.53,-2.63 -2.74,-0.69 -5.38,-1.49 -8.01,-2.17 -2.52,-0.69 -5.04,-1.37 -7.55,-2.17 -0.91,-0.23 -1.72,-0.46 -2.63,-0.8 -0.8,-0.11 -1.49,-0.34 -2.17,-0.57 -109.65,-32.16 -208.19,-89.85 -288.77,-166.19 -0.8,-0.57 -1.49,-1.26 -2.17,-1.95 -1.95,-1.83 -3.89,-3.78 -5.84,-5.72 -132.54,-129.56 -214.83,-310.29 -214.83,-510.13 0,-393.73 319.1,-712.83 712.83,-712.83 393.61,0 712.83,319.1 712.83,712.83z"/>
   <g>
    <path class="fil1" d="M968.9 605.13c-13.53,-7.04 -23.97,1.21 -31.28,11.9 3.71,-61.49 7.13,-144.9 1.33,-181.31 -9.74,-61.08 -63.82,-148.66 -193.63,-148.66l-25.96 0 -13.11 0 -25.96 0c-129.8,0 -183.89,87.58 -193.63,148.66 -5.81,36.41 -2.39,119.82 1.32,181.31 -7.31,-10.69 -17.75,-18.94 -31.28,-11.9 -28.81,14.98 -33.42,48.4 -14.98,82.97 17.78,33.34 1.48,78.36 54.04,84.63 0.78,12.53 1.63,23.62 2.56,32.54 7.4,70.68 113.4,149.05 128.19,172.09 14.79,23.05 60.4,18.44 60.4,18.44l20.95 0 9.86 0 20.95 0c0,0 45.61,4.61 60.4,-18.44 14.79,-23.05 120.8,-101.41 128.19,-172.09 0.93,-8.91 1.79,-20.01 2.56,-32.54 52.57,-6.27 36.26,-51.28 54.04,-84.63 18.44,-34.57 13.83,-67.99 -14.98,-82.97z"/>
    <g>
     <path class="fil1" d="M516.93 1070.74c49.51,58.87 118.99,95.62 195.86,95.62 76.88,0 146.36,-36.74 195.87,-95.61 -9.45,-6.42 -14.94,-10.41 -14.94,-10.41 -15.05,-28.9 -25.07,-82.61 -31.2,-127.34 -10.01,10.22 -19.85,19.73 -28.66,28.21 -12.66,12.19 -23.6,22.71 -27.03,28.05 -12.87,20.06 -42.35,23.05 -58.77,23.05 -4.9,0 -8.51,-0.26 -9.8,-0.37l-20.54 0 -9.86 0 -20.54 0c-1.29,0.11 -4.9,0.37 -9.8,0.37 -16.42,0 -45.9,-2.99 -58.77,-23.05 -3.43,-5.34 -14.36,-15.87 -27.03,-28.05 -8.81,-8.48 -18.66,-17.99 -28.66,-28.21 -6.14,44.73 -16.15,98.44 -31.2,127.34 0,0 -5.49,3.99 -14.94,10.4z"/>
     <path class="fil1" d="M1210.71 1223.07c-1.83,1.95 -3.78,3.78 -5.72,5.61 -0.69,0.69 -1.37,1.37 -2.17,2.06 -80.58,76.23 -179.12,133.91 -288.77,166.07 -0.8,0.23 -1.49,0.46 -2.29,0.69 -0.8,0.23 -1.72,0.46 -2.52,0.69 29.3,-101.41 48.76,-220.9 58.72,-290.26 28.84,16.71 62.61,34.11 95.22,45.78 80.58,28.85 123.27,35.71 147.42,69.13 0,0.11 0.11,0.11 0.11,0.23z"/>
     <path class="fil1" d="M516.42 1398.19c-0.91,-0.23 -1.72,-0.46 -2.63,-0.8 -0.8,-0.11 -1.49,-0.34 -2.17,-0.57 -109.65,-32.16 -208.19,-89.85 -288.77,-166.19 -0.8,-0.57 -1.49,-1.26 -2.17,-1.95 -1.95,-1.83 -3.89,-3.78 -5.84,-5.72 0.12,0 0.12,-0.11 0.12,-0.11 24.26,-33.42 66.84,-40.29 147.53,-69.13 32.62,-11.67 66.39,-29.07 95.23,-45.78 9.84,69.36 29.41,188.85 58.72,290.26z"/>
     <path class="fil1" d="M955.02 1100.26c-9.84,69.93 -30.22,197.43 -61.46,302.27 -3.43,0.92 -6.98,1.83 -10.53,2.63 -54.48,13.51 -111.6,20.49 -170.19,20.49 -58.72,0 -115.72,-6.98 -170.31,-20.49 -3.55,-0.8 -7.1,-1.72 -10.53,-2.63 -31.13,-104.84 -51.5,-232.34 -61.35,-302.27 13.28,-7.9 25.07,-15.45 34.8,-21.86 52.08,62.61 125.79,101.75 207.39,101.75 81.61,0 155.32,-39.15 207.39,-101.75 9.61,6.41 21.52,13.97 34.8,21.86z"/>
    </g>
   </g>
  </g>
 </g>
</svg>
