<?xml version="1.0" encoding="UTF-8"?>
<!DOCTYPE svg PUBLIC "-//W3C//DTD SVG 1.1//EN" "http://www.w3.org/Graphics/SVG/1.1/DTD/svg11.dtd">
<!-- Creator: CorelDRAW -->
<svg xmlns="http://www.w3.org/2000/svg" xml:space="preserve" width="45.0404mm" height="45.0404mm" version="1.1" style="shape-rendering:geometricPrecision; text-rendering:geometricPrecision; image-rendering:optimizeQuality; fill-rule:evenodd; clip-rule:evenodd"
viewBox="0 0 3885.19 3885.19"
 xmlns:xlink="http://www.w3.org/1999/xlink"
 xmlns:xodm="http://www.corel.com/coreldraw/odm/2003">
 <defs>
  <style type="text/css">
   <![CDATA[
    .fil1 {fill:#231F1F;fill-rule:nonzero}
    .fil0 {fill:#82DBF4;fill-rule:nonzero}
   ]]>
  </style>
 </defs>
 <g id="Layer_x0020_1">
  <metadata id="CorelCorpID_0Corel-Layer"/>
  <g id="_2149930199456">
   <path class="fil0" d="M3885.19 1942.6c0,544.6 -224.26,1037.11 -585.78,1389.88 -4.99,5.31 -10.29,10.29 -15.6,15.29 -101.99,97.32 -214.59,183.72 -335.61,257.01 -121.33,73.61 -251.09,134.13 -387.71,179.66 -5.3,1.87 -10.91,3.74 -16.22,5.31 -17.78,5.93 -35.56,11.23 -53.33,16.53 -11.54,3.43 -23.08,6.87 -34.62,9.99 -59.26,15.91 -119.46,29.32 -180.59,39.92 -14.66,2.8 -29.63,5.31 -44.61,7.18 -5.62,0.93 -11.23,1.86 -16.85,2.49 -14.03,2.18 -28.07,4.05 -42.1,5.62l-0.94 0c-7.8,0.93 -15.6,1.87 -23.39,2.49 -67.68,7.49 -135.99,11.23 -205.24,11.23 -68.62,0 -136.31,-3.43 -203.06,-10.61l-1.87 0c-8.11,-0.93 -16.22,-1.87 -24.01,-2.8 -14.35,-1.56 -28.39,-3.43 -42.42,-5.62 -5.61,-0.62 -11.22,-1.25 -16.84,-2.18 -76.43,-11.54 -151.59,-27.45 -224.89,-47.72 -11.85,-3.12 -23.39,-6.56 -35.25,-9.99 -17.78,-4.99 -35.57,-10.29 -53.03,-16.53l-0.31 0c-5.3,-1.25 -10.6,-3.12 -15.91,-4.99 -273.24,-91.7 -519.34,-242.05 -723.33,-436.99l-0.31 0c-5.31,-4.99 -10.3,-9.98 -15.29,-14.97l0 -0.31c-361.51,-352.78 -586.09,-845.28 -586.09,-1389.88 0,-1073.3 869.93,-1942.6 1942.6,-1942.6 1072.98,0 1942.6,869.3 1942.6,1942.6z"/>
   <g>
    <path class="fil1" d="M2640.6 1652.24c-4.71,-2.45 -9.27,-4.15 -13.72,-5.31 22.22,-267.84 51.32,-579.34 51.32,-579.34 -56.53,-163.34 -201,-269.86 -201,-269.86l-106.54 34.83 -56.77 -127.16c0,0 -144.47,-99.42 -540.18,-92.32 -395.71,7.1 -628.11,355.09 -602.98,504.23 14.55,86.4 45.96,339.58 69.81,537.41 -74.62,41.9 -85.94,131.2 -36.63,223.66 48.46,90.87 4.03,213.54 147.27,230.62 2.13,34.14 4.45,64.38 7,88.67 20.15,192.63 309.04,406.18 349.35,469 40.31,62.81 164.59,50.25 164.59,50.25l57.1 0 26.88 0 57.1 0c0,0 124.28,12.56 164.59,-50.25 40.31,-62.81 329.19,-276.37 349.35,-469 2.54,-24.28 4.87,-54.53 6.99,-88.67 143.25,-17.07 98.82,-139.75 147.28,-230.62 50.26,-94.22 37.69,-185.3 -40.83,-226.12z"/>
    <g>
     <path class="fil1" d="M2272.6 2619.46c-34.5,33.21 -64.31,61.89 -73.65,76.45 -35.08,54.66 -115.41,62.82 -160.17,62.82 -13.36,0 -23.2,-0.72 -26.71,-1.03l-55.97 0 -26.88 0 -55.97 0c-3.51,0.3 -13.35,1.03 -26.71,1.03 -44.76,0 -125.09,-8.16 -160.16,-62.82 -9.34,-14.56 -39.14,-43.24 -73.65,-76.45 -24.01,-23.11 -50.85,-49.02 -78.12,-76.87 -14.31,104.32 -36.38,226.5 -68.16,308.95l476.22 198.54 476.2 -198.54c-31.78,-82.45 -53.85,-204.63 -68.17,-308.95 -27.26,27.84 -54.09,53.76 -78.1,76.87z"/>
     <path class="fil1" d="M1913.54 3078.79l-462.2 -192.73c-0.58,1.16 -1.15,2.42 -1.74,3.56 0,0 -12.95,9.37 -34.77,24.28l326.75 365.83 171.96 -200.94z"/>
     <path class="fil1" d="M3299.42 3332.48c-4.99,5.31 -10.29,10.29 -15.6,15.29 -101.99,97.32 -214.59,183.72 -335.61,257.01 -121.33,73.61 -251.09,134.13 -387.71,179.66 -5.3,1.87 -10.91,3.74 -16.22,5.31l170.62 -292.27 -180.29 -233.62 231.44 -175.92c43.35,20.9 87.64,40.55 131.31,56.15 219.9,78.29 335.93,97.31 402.05,188.39z"/>
     <path class="fil1" d="M2470.5 2913.9c-21.82,-14.91 -34.76,-24.28 -34.76,-24.28 -0.6,-1.14 -1.16,-2.4 -1.74,-3.56l-462.21 192.73 171.96 200.94 326.75 -365.83z"/>
     <path class="fil1" d="M1671.23 3866.16c-5.61,-0.62 -11.22,-1.25 -16.84,-2.18 -76.43,-11.54 -151.59,-27.45 -224.89,-47.72 -11.85,-3.12 -23.39,-6.56 -35.25,-9.99l-178.42 -305.98 188.09 -243.61 -247.04 -187.77c65.51,-33.68 126.64,-70.18 175.92,-101.06l338.42 898.31z"/>
     <path class="fil1" d="M1170.3 3497.48l170.61 292.27c-5.3,-1.25 -10.6,-3.12 -15.91,-4.99 -273.24,-91.7 -519.34,-242.05 -723.33,-436.99l-0.31 0c-5.31,-4.99 -10.3,-9.98 -15.29,-14.97l0 -0.31c65.81,-91.08 182.16,-110.1 401.75,-188.39 43.66,-15.6 88.27,-35.25 131.62,-56.15l231.44 175.92 -180.6 233.62z"/>
     <path class="fil1" d="M2481.58 3256.68l188.08 243.61 -178.72 305.98c-11.54,3.43 -23.08,6.87 -34.62,9.99 -59.26,15.91 -119.46,29.32 -180.59,39.92 -14.66,2.8 -29.63,5.31 -44.61,7.18 -5.62,0.93 -11.23,1.86 -16.85,2.49l338.42 -898c49.29,30.88 110.42,67.38 175.61,101.06l-246.72 187.77z"/>
     <path class="fil1" d="M2520.26 2946.96l-348.09 924.51 -0.94 0c-7.8,0.93 -15.6,1.87 -23.39,2.49 -67.68,7.49 -135.99,11.23 -205.24,11.23 -68.62,0 -136.31,-3.43 -203.06,-10.61l-1.87 0c-8.11,-0.93 -16.22,-1.87 -24.01,-2.8l-348.4 -924.82c6.24,-4.05 12.16,-8.12 18.09,-11.85l358.7 401.74 200.55 -234.25 200.56 234.25 359.01 -401.74c5.61,3.74 11.53,7.8 18.09,11.85z"/>
    </g>
   </g>
  </g>
 </g>
</svg>
